<svg width="249.33494873046874px" height="141.9199981689453px" xmlns="http://www.w3.org/2000/svg" viewBox="125.33252563476563 4.040000915527344 249.33494873046874 141.9199981689453" style="background: rgba(0, 0, 0, 0);" preserveAspectRatio="xMidYMid"><defs><filter id="editing-extrusion" x="-100%" y="-100%" width="300%" height="300%"><feFlood result="color1" flood-color="#444444"></feFlood><feConvolveMatrix order="8,8" divisor="1" kernelMatrix="1 0 0 0 0 0 0 0 0 1 0 0 0 0 0 0 0 0 1 0 0 0 0 0 0 0 0 1 0 0 0 0 0 0 0 0 1 0 0 0 0 0 0 0 0 1 0 0 0 0 0 0 0 0 1 0 0 0 0 0 0 0 0 1" in="SourceAlpha" result="extrude"></feConvolveMatrix><feComposite in="color1" in2="extrude" result="comp-extrude" operator="in"></feComposite><feOffset dx="4" dy="4" in="comp-extrude" result="offset-extrude"></feOffset><feMerge><feMergeNode in="offset-extrude"></feMergeNode><feMergeNode in="SourceGraphic"></feMergeNode></feMerge></filter></defs><g filter="url(#editing-extrusion)"><g transform="translate(164.27001953125, 97.81500434875488)"><path d="M43.97-44.29L50.18-44.29L50.18 0L44.35 0L44.35-33.02L29.63 0L25.54 0L10.75-32.96L10.75 0L4.93 0L4.93-44.29L11.20-44.29L27.58-7.68L43.97-44.29ZM84.03-40.06L65.86-40.06L65.86-24.77L82.11-24.77L82.11-20.29L65.86-20.29L65.86-4.61L84.03-4.61L84.03 0L60.03 0L60.03-44.67L84.03-44.67L84.03-40.06ZM107.01 0.45L107.01 0.45Q102.59 0.45 99.10-1.12L99.10-1.12L99.10-1.12Q95.62-2.69 93.63-5.47L93.63-5.47L93.63-5.47Q91.65-8.26 91.58-11.90L91.58-11.90L97.79-11.90L97.79-11.90Q98.11-8.70 100.42-6.50L100.42-6.50L100.42-6.50Q102.72-4.29 107.01-4.29L107.01-4.29L107.01-4.29Q111.10-4.29 113.54-6.43L113.54-6.43L113.54-6.43Q115.97-8.58 115.97-11.90L115.97-11.90L115.97-11.90Q115.97-14.46 114.56-16.06L114.56-16.06L114.56-16.06Q113.15-17.66 111.04-18.50L111.04-18.50L111.04-18.50Q108.93-19.33 105.34-20.29L105.34-20.29L105.34-20.29Q100.93-21.44 98.27-22.59L98.27-22.59L98.27-22.59Q95.62-23.74 93.73-26.21L93.73-26.21L93.73-26.21Q91.84-28.67 91.84-32.83L91.84-32.83L91.84-32.83Q91.84-36.48 93.70-39.30L93.70-39.30L93.70-39.30Q95.55-42.11 98.91-43.65L98.91-43.65L98.91-43.65Q102.27-45.18 106.62-45.18L106.62-45.18L106.62-45.18Q112.90-45.18 116.90-42.05L116.90-42.05L116.90-42.05Q120.90-38.91 121.41-33.73L121.41-33.73L115.01-33.73L115.01-33.73Q114.69-36.48 112.35-38.43L112.35-38.43L112.35-38.43Q110.02-40.38 106.05-40.38L106.05-40.38L106.05-40.38Q102.40-40.38 100.10-38.46L100.10-38.46L100.10-38.46Q97.79-36.54 97.79-33.02L97.79-33.02L97.79-33.02Q97.79-30.59 99.17-29.06L99.17-29.06L99.17-29.06Q100.54-27.52 102.56-26.72L102.56-26.72L102.56-26.72Q104.58-25.92 108.22-24.90L108.22-24.90L108.22-24.90Q112.64-23.68 115.33-22.50L115.33-22.50L115.33-22.50Q118.02-21.31 119.94-18.85L119.94-18.85L119.94-18.85Q121.86-16.38 121.86-12.16L121.86-12.16L121.86-12.16Q121.86-8.90 120.13-6.02L120.13-6.02L120.13-6.02Q118.40-3.14 115.01-1.34L115.01-1.34L115.01-1.34Q111.62 0.45 107.01 0.45L107.01 0.45ZM160.38 0L156.80-9.92L137.34-9.92L133.76 0L127.62 0L143.74-44.35L150.46-44.35L166.53 0L160.38 0ZM138.94-14.46L155.20-14.46L147.07-37.18L138.94-14.46Z" fill="#ccc"></path></g></g><style>text {
  font-size: 64px;
  font-family: Arial Black;
  dominant-baseline: central;
  text-anchor: middle;
}</style></svg>